<svg xmlns="http://www.w3.org/2000/svg" width="1440" height="520" viewBox="0 0 1440 520" role="img" aria-labelledby="title desc">
<title id="title">Interface Behavior Lab</title><desc id="desc">A dark spatial interface showing an adaptive control between approach and commit states.</desc>
<defs><radialGradient id="g" cx="70%" cy="30%" r="70%"><stop offset="0" stop-color="#1647a8" stop-opacity=".55"/><stop offset=".55" stop-color="#0d1830" stop-opacity=".25"/><stop offset="1" stop-color="#08090b" stop-opacity="0"/></radialGradient><linearGradient id="glass" x1="0" y1="0" x2="1" y2="1"><stop stop-color="#fff" stop-opacity=".25"/><stop offset="1" stop-color="#7ea7ff" stop-opacity=".12"/></linearGradient><filter id="shadow"><feDropShadow dx="0" dy="12" stdDeviation="18" flood-color="#397cff" flood-opacity=".2"/></filter></defs>
<rect width="1440" height="520" fill="#08090b"/><rect width="1440" height="520" fill="url(#g)"/>
<g opacity=".08" stroke="#fff"><path d="M80 0v520M240 0v520M400 0v520M560 0v520M720 0v520M880 0v520M1040 0v520M1200 0v520M1360 0v520"/><path d="M0 80h1440M0 200h1440M0 320h1440M0 440h1440"/></g>
<text x="72" y="74" fill="#9aa3b1" font-family="Arial, sans-serif" font-size="14" letter-spacing="3">UNDONE FUTURES / INTERACTION SYSTEM 01</text>
<text x="72" y="176" fill="#fff" font-family="Arial, sans-serif" font-size="68" font-weight="700">Interface</text><text x="72" y="250" fill="#fff" font-family="Arial, sans-serif" font-size="68" font-weight="700">Behavior Lab</text>
<text x="76" y="304" fill="#aab1bd" font-family="Arial, sans-serif" font-size="18">Adaptive Controls 2045</text>
<text x="76" y="346" fill="#777f8c" font-family="Arial, sans-serif" font-size="15">intention · pressure · attention · consequence · recovery</text>
<g transform="translate(800 112)"><ellipse cx="260" cy="145" rx="260" ry="118" fill="none" stroke="#4d83ed" stroke-opacity=".18"/><ellipse cx="260" cy="145" rx="215" ry="94" fill="none" stroke="#4d83ed" stroke-opacity=".24"/><ellipse cx="260" cy="145" rx="168" ry="72" fill="none" stroke="#4d83ed" stroke-opacity=".3"/>
<g filter="url(#shadow)"><rect x="94" y="105" width="332" height="80" rx="40" fill="url(#glass)" stroke="#b9d0ff" stroke-opacity=".8"/><text x="124" y="139" fill="#fff" font-family="Arial, sans-serif" font-size="17" font-weight="600">Continue with intent</text><text x="124" y="164" fill="#aebbd2" font-family="Arial, sans-serif" font-size="11" letter-spacing="2">PRESSURE 0.66</text><circle cx="386" cy="145" r="24" fill="#56d8ff"/><path d="M378 145h15m-6-6 6 6-6 6" fill="none" stroke="#07101c" stroke-width="2"/></g>
<text x="18" y="151" fill="#8d96a5" font-family="Arial, sans-serif" font-size="11" letter-spacing="2">APPROACH</text><text x="456" y="151" fill="#8d96a5" font-family="Arial, sans-serif" font-size="11" letter-spacing="2">COMMIT</text></g>
<text x="76" y="452" fill="#dce2eb" font-family="Arial, sans-serif" font-size="22" font-weight="600">The button is no longer a shape. It is a behavioral contract.</text>
</svg>